<svg xmlns="http://www.w3.org/2000/svg" width="800" height="800" fill="none" viewBox="0 0 24 24"><path fill="#000" d="M11.386 23.789 12 23l.614.79a1 1 0 0 1-1.228-.001Z"/><path fill="#000" fill-rule="evenodd" d="M12 6a4 4 0 1 0 0 8 4 4 0 0 0 0-8Zm-2 4a2 2 0 1 1 4 0 2 2 0 0 1-4 0Z" clip-rule="evenodd"/><path fill="#000" fill-rule="evenodd" d="M11.386 23.789 12 23c.614.79.615.788.615.788h.002l.006-.006.022-.017.08-.064a38.012 38.012 0 0 0 1.345-1.14 40.77 40.77 0 0 0 3.173-3.142c1.154-1.282 2.33-2.78 3.222-4.366C21.352 13.476 22 11.739 22 10a10 10 0 0 0-20 0c0 1.74.648 3.476 1.535 5.053.892 1.586 2.068 3.084 3.222 4.366a40.773 40.773 0 0 0 4.517 4.282l.081.064.022.017.006.005.003.002ZM6.343 4.343A8 8 0 0 1 20 10c0 1.26-.477 2.65-1.278 4.072-.795 1.414-1.869 2.79-2.965 4.009A38.787 38.787 0 0 1 12 21.708a38.79 38.79 0 0 1-3.757-3.627c-1.096-1.218-2.17-2.595-2.965-4.009C4.478 12.65 4 11.261 4 10a8 8 0 0 1 2.343-5.657Z" clip-rule="evenodd"/></svg>