<svg xmlns="http://www.w3.org/2000/svg" width="18" height="24" fill="none"><g clip-path="url(#a)"><path fill="#2E2F42" d="m14.726 13.865-1.838-.21a1.441 1.441 0 0 0-1.187.413l-1.331 1.331A10.888 10.888 0 0 1 5.6 10.63l1.34-1.339a1.44 1.44 0 0 0 .412-1.186l-.21-1.824A1.448 1.448 0 0 0 5.702 5H4.45c-.818 0-1.498.68-1.447 1.498.383 6.18 5.326 11.116 11.499 11.5.818.05 1.498-.63 1.498-1.448v-1.252a1.434 1.434 0 0 0-1.274-1.433Z"/></g><defs><clipPath id="a"><path fill="#fff" d="M0 0h18v24H0z"/></clipPath></defs></svg>